HIERARCHY
ROOT Hips
{
  OFFSET 5.80788e-005 67.184 3.4734
  CHANNELS 6 Xposition Yposition Zposition Zrotation Xrotation Yrotation
  JOINT Chest
  {
    OFFSET 0 8.7983 -4.7612
    CHANNELS 6 Xposition Yposition Zposition Zrotation Xrotation Yrotation
    JOINT Chest2
    {
      OFFSET 0 8.0291 0.4195
      CHANNELS 6 Xposition Yposition Zposition Zrotation Xrotation Yrotation
      JOINT Chest3
      {
        OFFSET 0 9.9351 -2.2114
        CHANNELS 6 Xposition Yposition Zposition Zrotation Xrotation Yrotation
        JOINT Neck
        {
          OFFSET 0 22.3885 -0.4656
          CHANNELS 6 Xposition Yposition Zposition Zrotation Xrotation Yrotation
          JOINT Head
          {
            OFFSET -0.0001 12.643 3.4389
            CHANNELS 6 Xposition Yposition Zposition Zrotation Xrotation Yrotation
            End Site
            {
              OFFSET 0.0001 17.6655 0.5274
            }
          }
        }
        JOINT LeftCollar
        {
          OFFSET 2.2603 21.606 7.4023
          CHANNELS 6 Xposition Yposition Zposition Zrotation Xrotation Yrotation
          JOINT LeftShoulder
          {
            OFFSET 13.5163 -1.1332 -5.0146
            CHANNELS 6 Xposition Yposition Zposition Zrotation Xrotation Yrotation
            JOINT LeftElbow
            {
              OFFSET -0.0995 -28.05 -0.2431
              CHANNELS 6 Xposition Yposition Zposition Zrotation Xrotation Yrotation
              JOINT LeftWrist
              {
                OFFSET 0.0679 -23.3996 -0.1402
                CHANNELS 6 Xposition Yposition Zposition Zrotation Xrotation Yrotation
                JOINT LeftFinger1
                {
                  OFFSET 0.7932 -9.069 2.5189
                  CHANNELS 6 Xposition Yposition Zposition Zrotation Xrotation Yrotation
                  JOINT LeftFinger11
                  {
                    OFFSET -0.8272 -3.3923 0.5977
                    CHANNELS 6 Xposition Yposition Zposition Zrotation Xrotation Yrotation
                    JOINT LeftFinger12
                    {
                      OFFSET -0.5649 -2.3158 0.4082
                      CHANNELS 6 Xposition Yposition Zposition Zrotation Xrotation Yrotation
                      End Site
                      {
                        OFFSET -0.4919 -1.6479 0.2673
                      }
                    }
                  }
                }
                JOINT LeftFinger2
                {
                  OFFSET 0.9159 -9.2044 0.2193
                  CHANNELS 6 Xposition Yposition Zposition Zrotation Xrotation Yrotation
                  JOINT LeftFinger21
                  {
                    OFFSET 0.0117 -4.1944 -0.0248
                    CHANNELS 6 Xposition Yposition Zposition Zrotation Xrotation Yrotation
                    JOINT LeftFinger22
                    {
                      OFFSET 0.0071 -2.3249 -0.0142
                      CHANNELS 6 Xposition Yposition Zposition Zrotation Xrotation Yrotation
                      End Site
                      {
                        OFFSET -0.1475 -2.0882 0.0028
                      }
                    }
                  }
                }
                JOINT LeftFinger3
                {
                  OFFSET 0.6113 -8.7231 -2.0637
                  CHANNELS 6 Xposition Yposition Zposition Zrotation Xrotation Yrotation
                  JOINT LeftFinger31
                  {
                    OFFSET -0.1927 -3.8059 -0.2383
                    CHANNELS 6 Xposition Yposition Zposition Zrotation Xrotation Yrotation
                    JOINT LeftFinger32
                    {
                      OFFSET -0.1091 -2.1688 -0.1362
                      CHANNELS 6 Xposition Yposition Zposition Zrotation Xrotation Yrotation
                      End Site
                      {
                        OFFSET -0.2358 -1.9176 -0.0906
                      }
                    }
                  }
                }
                JOINT LeftFinger4
                {
                  OFFSET -0.6151 -8.0947 -3.5641
                  CHANNELS 6 Xposition Yposition Zposition Zrotation Xrotation Yrotation
                  JOINT LeftFinger41
                  {
                    OFFSET -0.4882 -2.341 -0.6462
                    CHANNELS 6 Xposition Yposition Zposition Zrotation Xrotation Yrotation
                    JOINT LeftFinger42
                    {
                      OFFSET -0.3575 -1.7167 -0.4742
                      CHANNELS 6 Xposition Yposition Zposition Zrotation Xrotation Yrotation
                      End Site
                      {
                        OFFSET -0.4187 -1.5237 -0.3496
                      }
                    }
                  }
                }
                JOINT LeftFinger0
                {
                  OFFSET -1.42 -1.8761 1.4223
                  CHANNELS 6 Xposition Yposition Zposition Zrotation Xrotation Yrotation
                  JOINT LeftFinger01
                  {
                    OFFSET -1.1471 -3.4929 2.6334
                    CHANNELS 6 Xposition Yposition Zposition Zrotation Xrotation Yrotation
                    JOINT LeftFinger02
                    {
                      OFFSET -0.823 -2.3 1.6571
                      CHANNELS 6 Xposition Yposition Zposition Zrotation Xrotation Yrotation
                      End Site
                      {
                        OFFSET -0.5822 -1.6914 1.1582
                      }
                    }
                  }
                }
              }
            }
          }
        }
        JOINT RightCollar
        {
          OFFSET -2.2603 21.606 7.4023
          CHANNELS 6 Xposition Yposition Zposition Zrotation Xrotation Yrotation
          JOINT RightShoulder
          {
            OFFSET -13.5187 -1.1334 -5.0155
            CHANNELS 6 Xposition Yposition Zposition Zrotation Xrotation Yrotation
            JOINT RightElbow
            {
              OFFSET 0.0994 -28.0499 -0.2431
              CHANNELS 6 Xposition Yposition Zposition Zrotation Xrotation Yrotation
              JOINT RightWrist
              {
                OFFSET -0.0679 -23.3996 -0.1402
                CHANNELS 6 Xposition Yposition Zposition Zrotation Xrotation Yrotation
                JOINT RightFinger1
                {
                  OFFSET -0.7932 -9.0691 2.5189
                  CHANNELS 6 Xposition Yposition Zposition Zrotation Xrotation Yrotation
                  JOINT RightFinger11
                  {
                    OFFSET 0.8272 -3.3923 0.5977
                    CHANNELS 6 Xposition Yposition Zposition Zrotation Xrotation Yrotation
                    JOINT RightFinger12
                    {
                      OFFSET 0.565 -2.3158 0.4082
                      CHANNELS 6 Xposition Yposition Zposition Zrotation Xrotation Yrotation
                      End Site
                      {
                        OFFSET 0.4919 -1.6479 0.2673
                      }
                    }
                  }
                }
                JOINT RightFinger2
                {
                  OFFSET -0.916 -9.2044 0.2193
                  CHANNELS 6 Xposition Yposition Zposition Zrotation Xrotation Yrotation
                  JOINT RightFinger21
                  {
                    OFFSET -0.0117 -4.1944 -0.0248
                    CHANNELS 6 Xposition Yposition Zposition Zrotation Xrotation Yrotation
                    JOINT RightFinger22
                    {
                      OFFSET -0.0071 -2.3249 -0.0142
                      CHANNELS 6 Xposition Yposition Zposition Zrotation Xrotation Yrotation
                      End Site
                      {
                        OFFSET 0.1475 -2.0882 0.0028
                      }
                    }
                  }
                }
                JOINT RightFinger3
                {
                  OFFSET -0.6113 -8.7231 -2.0637
                  CHANNELS 6 Xposition Yposition Zposition Zrotation Xrotation Yrotation
                  JOINT RightFinger31
                  {
                    OFFSET 0.1927 -3.8059 -0.2383
                    CHANNELS 6 Xposition Yposition Zposition Zrotation Xrotation Yrotation
                    JOINT RightFinger32
                    {
                      OFFSET 0.1091 -2.1688 -0.1362
                      CHANNELS 6 Xposition Yposition Zposition Zrotation Xrotation Yrotation
                      End Site
                      {
                        OFFSET 0.2358 -1.9176 -0.0906
                      }
                    }
                  }
                }
                JOINT RightFinger4
                {
                  OFFSET 0.6151 -8.0947 -3.564
                  CHANNELS 6 Xposition Yposition Zposition Zrotation Xrotation Yrotation
                  JOINT RightFinger41
                  {
                    OFFSET 0.4882 -2.341 -0.6462
                    CHANNELS 6 Xposition Yposition Zposition Zrotation Xrotation Yrotation
                    JOINT RightFinger42
                    {
                      OFFSET 0.3574 -1.7166 -0.4742
                      CHANNELS 6 Xposition Yposition Zposition Zrotation Xrotation Yrotation
                      End Site
                      {
                        OFFSET 0.4187 -1.5237 -0.3496
                      }
                    }
                  }
                }
                JOINT RightFinger0
                {
                  OFFSET 1.4199 -1.8761 1.4221
                  CHANNELS 6 Xposition Yposition Zposition Zrotation Xrotation Yrotation
                  JOINT RightFinger01
                  {
                    OFFSET 1.1472 -3.4929 2.6336
                    CHANNELS 6 Xposition Yposition Zposition Zrotation Xrotation Yrotation
                    JOINT RightFinger02
                    {
                      OFFSET 0.8229 -2.3 1.6571
                      CHANNELS 6 Xposition Yposition Zposition Zrotation Xrotation Yrotation
                      End Site
                      {
                        OFFSET 0.5822 -1.6914 1.1582
                      }
                    }
                  }
                }
              }
            }
          }
        }
      }
    }
  }
  JOINT RightHip
  {
    OFFSET -9.412 3.9771 -0.7758
    CHANNELS 6 Xposition Yposition Zposition Zrotation Xrotation Yrotation
    JOINT RightKnee
    {
      OFFSET -0.7531 -40.938 0
      CHANNELS 6 Xposition Yposition Zposition Zrotation Xrotation Yrotation
      JOINT RightAnkle
      {
        OFFSET 0 -40.1986 0
        CHANNELS 6 Xposition Yposition Zposition Zrotation Xrotation Yrotation
        JOINT RightToe
        {
          OFFSET 0 -4.4182 9.239
          CHANNELS 6 Xposition Yposition Zposition Zrotation Xrotation Yrotation
          End Site
          {
            OFFSET 0 0 6.1981
          }
        }
      }
    }
  }
  JOINT LeftHip
  {
    OFFSET 9.4119 3.9773 -0.7758
    CHANNELS 6 Xposition Yposition Zposition Zrotation Xrotation Yrotation
    JOINT LeftKnee
    {
      OFFSET 0.7532 -40.9383 0
      CHANNELS 6 Xposition Yposition Zposition Zrotation Xrotation Yrotation
      JOINT LeftAnkle
      {
        OFFSET 0 -40.1986 0
        CHANNELS 6 Xposition Yposition Zposition Zrotation Xrotation Yrotation
        JOINT LeftToe
        {
          OFFSET 0 -4.4182 9.239
          CHANNELS 6 Xposition Yposition Zposition Zrotation Xrotation Yrotation
          End Site
          {
            OFFSET 0 0 6.1981
          }
        }
      }
    }
  }
}
MOTION
Frames:	4
Frame Time:	0.0333333
5.80788e-005 67.184 3.4734 0 0 -0 0 8.7983 -4.7612 0 0 -0 0 8.0291 0.4195 0 0 -0 0 9.9351 -2.2114 0 0 -0 0 22.3885 -0.4656 0 0 -0 -0.0001 12.643 3.4389 0 0 -0 2.2603 21.606 7.4023 0 0 -12.5014 13.5163 -1.1332 -5.0146 88.1196 14.2451 10.6914 -0.0995 -28.05 -0.2431 -0.00160068 -0.00239207 0.000740045 0.0679 -23.3996 -0.1402 -8.4365e-005 7.00714e-005 -9.52055e-007 0.7932 -9.069 2.5189 9.93923e-017 -1.98785e-016 -1.59028e-015 -0.8272 -3.3923 0.5977 9.93923e-017 -5.96354e-016 -1.59028e-015 -0.5649 -2.3158 0.4082 -9.93923e-017 -5.96354e-016 -1.59028e-015 0.9159 -9.2044 0.2193 9.93923e-017 -1.98785e-016 -1.59028e-015 0.0117 -4.1944 -0.0248 -0.0128176 0.00232552 8.52707e-005 0.0071 -2.3249 -0.0142 9.93923e-017 5.96354e-016 -0 0.6113 -8.7231 -2.0637 9.93923e-017 -1.98785e-016 -1.59028e-015 -0.1927 -3.8059 -0.2383 -0.0160551 0.00299681 0.000857156 -0.1091 -2.1688 -0.1362 -2.48481e-016 0 3.18055e-015 -0.6151 -8.0947 -3.5641 9.93923e-017 -1.98785e-016 -1.59028e-015 -0.4882 -2.341 -0.6462 -0.0125865 0.0031206 0.00282719 -0.3575 -1.7167 -0.4742 0 1.98785e-016 -0 -1.42 -1.8761 1.4223 9.93923e-017 -1.98785e-016 -1.59028e-015 -1.1471 -3.4929 2.6334 9.93923e-017 -5.96354e-016 -1.59028e-015 -0.823 -2.3 1.6571 -9.93923e-017 -5.96354e-016 -1.59028e-015 -2.2603 21.606 7.4023 -0.865644 0.16582 7.03859 -13.5187 -1.1334 -5.0155 -88.0329 10.2057 -10.5567 0.0994 -28.0499 -0.2431 0.0015593 -0.00248883 -0.000788628 -0.0679 -23.3996 -0.1402 7.87605e-005 4.10553e-005 1.24965e-005 -0.7932 -9.0691 2.5189 -3.97569e-016 -7.95139e-016 3.18055e-015 0.8272 -3.3923 0.5977 -1.98785e-016 -3.97569e-016 3.18055e-015 0.565 -2.3158 0.4082 -1.98785e-016 0 3.18055e-015 -0.916 -9.2044 0.2193 -3.97569e-016 -7.95139e-016 3.18055e-015 -0.0117 -4.1944 -0.0248 0.0129473 0.00231697 -8.70038e-005 -0.0071 -2.3249 -0.0142 9.93923e-017 -7.95139e-016 1.59028e-015 -0.6113 -8.7231 -2.0637 -3.97569e-016 -7.95139e-016 3.18055e-015 0.1927 -3.8059 -0.2383 0.0163314 0.00303369 -0.000872333 0.1091 -2.1688 -0.1362 3.97569e-016 7.95139e-016 -3.18055e-015 0.6151 -8.0947 -3.564 -3.97569e-016 -7.95139e-016 3.18055e-015 0.4882 -2.341 -0.6462 0.0145763 0.00367772 -0.00326275 0.3574 -1.7166 -0.4742 9.93923e-017 -3.97569e-016 -0 1.4199 -1.8761 1.4221 -3.97569e-016 -7.95139e-016 3.18055e-015 1.1472 -3.4929 2.6336 -1.98785e-016 -3.97569e-016 3.18055e-015 0.8229 -2.3 1.6571 -1.98785e-016 0 3.18055e-015 -9.412 3.9771 -0.7758 3.42485 1.36937 -0.0640303 -0.7531 -40.938 0 0.000136572 0.69354 0.00145564 1.77636e-015 -40.1986 -1.11022e-016 -3.42573 -2.06297 -0.0607933 8.88178e-016 -4.4182 9.239 -3.19502e-024 0 -1.48106e-024 9.4119 3.9773 -0.7758 -3.42498 1.36123 0.0639712 0.7532 -40.9383 2.22045e-016 -6.769e-005 0.712612 -0.0012277 8.88179e-016 -40.1986 0 3.42582 -2.07388 0.0612819 -8.88178e-016 -4.4182 9.239 2.55305e-023 0 -2.31416e-026 
0.0289356 73.0582 12.0531 -1.07478e-014 28.0015 -180 3.46945e-018 8.7983 -4.7612 -0.624806 3.82628 -0.221783 1.11022e-016 8.0291 0.4195 -1.23888 7.65473 -0.402979 0 9.9351 -2.2114 -1.23889 7.65474 -0.40298 0 22.3885 -0.4656 -2.80381e-006 1.30815e-005 8.22946e-009 -0.0001 12.643 3.4389 -4.54003e-007 4.07266e-006 -1.44653e-007 2.2603 21.606 7.4023 -25.9665 -9.11995 -38.6628 13.5163 -1.1332 -5.0146 85.7417 -7.37199 33.5995 -0.0995 -28.05 -0.2431 -28.8446 -28.9245 -9.41996 0.0679 -23.3996 -0.1402 -51.2292 15.1688 9.91821 0.7932 -9.069 2.5189 1.58901e-030 -1.43125e-014 6.36111e-015 -0.8272 -3.3923 0.5977 -9.54166e-015 -7.95139e-015 3.18055e-015 -0.5649 -2.3158 0.4082 -8.57556e-007 -7.95016e-006 -3.62098e-006 0.9159 -9.2044 0.2193 1.58901e-030 -1.43125e-014 6.36111e-015 0.0117 -4.1944 -0.0248 -0.0128487 0.00232615 8.71407e-005 0.0071 -2.3249 -0.0142 -1.76556e-031 -3.18055e-015 -3.18055e-015 0.6113 -8.7231 -2.0637 1.58901e-030 -1.43125e-014 6.36111e-015 -0.1927 -3.8059 -0.2383 -0.0160183 0.00298134 0.00084779 -0.1091 -2.1688 -0.1362 -9.54166e-015 1.11319e-014 -7.95139e-015 -0.6151 -8.0947 -3.5641 1.58901e-030 -1.43125e-014 6.36111e-015 -0.4882 -2.341 -0.6462 -0.0125372 0.00309832 0.00281125 -0.3575 -1.7167 -0.4742 3.18055e-015 -7.95139e-015 -0 -1.42 -1.8761 1.4223 1.58901e-030 -1.43125e-014 6.36111e-015 -1.1471 -3.4929 2.6334 -9.54166e-015 -7.95139e-015 3.18055e-015 -0.823 -2.3 1.6571 -8.57556e-007 -7.95016e-006 -3.62098e-006 -2.2603 21.606 7.4023 24.648 1.31403 14.7681 -13.5187 -1.1334 -5.0155 -54.4991 -5.9383 -21.4322 0.0994 -28.0499 -0.2431 17.6997 0.864552 8.38331 -0.0679 -23.3996 -0.1402 53.5046 -0.0816227 2.50222 -0.7932 -9.06911 2.5189 1.59028e-015 4.77083e-015 3.18055e-015 0.8272 -3.3923 0.5977 4.88007e-007 3.18448e-006 1.49061e-006 0.565 -2.3158 0.4082 -3.97569e-015 -1.59028e-015 -0 -0.916 -9.20441 0.2193 1.59028e-015 4.77083e-015 3.18055e-015 -0.0117 -4.1944 -0.0248 0.0129439 0.00232209 -8.54862e-005 -0.0071 -2.3249 -0.0142 -4.87795e-007 2.44983e-007 -1.49063e-006 -0.6113 -8.72311 -2.0637 1.59028e-015 4.77083e-015 3.18055e-015 0.1927 -3.8059 -0.2383 0.0163094 0.0030319 -0.000865667 0.1091 -2.1688 -0.1362 9.75473e-007 1.32373e-006 2.98128e-006 0.6151 -8.09471 -3.564 1.59028e-015 4.77083e-015 3.18055e-015 0.4882 -2.341 -0.6462 0.014614 0.00369208 -0.00326817 0.3574 -1.7166 -0.4742 -0 -6.36111e-015 -0 1.4199 -1.8761 1.4221 1.59028e-015 4.77083e-015 3.18055e-015 1.1472 -3.4929 2.6336 4.88007e-007 3.18448e-006 1.49061e-006 0.8229 -2.3 1.6571 -3.97569e-015 -1.59028e-015 -0 -9.412 3.9771 -0.7758 -172.291 -28.3331 178.086 -0.7531 -40.938 1.77636e-015 -132.121 40.3723 108.204 -7.10543e-015 -40.1986 0 5.43527 -10.1163 22.5234 0 -4.4182 9.239 -7.32534e-006 -1.2613e-005 -2.29144e-006 9.4119 3.9773 -0.7758 94.8092 -25.0287 113.336 0.7532 -40.9383 0 -158.069 33.2357 121 0 -40.1986 0 19.326 26.3441 9.02648 1.42109e-014 -4.4182 9.239 -4.838e-006 7.11244e-007 2.99724e-007 
0.082518 72.6953 12.047 -1.08178e-014 28.445 -180 0 8.7983 -4.7612 -0.623735 4.02562 -0.220933 -1.11022e-016 8.0291 0.4195 -1.23646 8.05336 -0.399279 0 9.9351 -2.2114 -1.23647 8.0534 -0.399281 0 22.3885 -0.4656 0.138941 -0.196326 0.221173 -0.0001 12.643 3.4389 0.0523089 -0.22343 0.0196367 2.2603 21.606 7.4023 -25.4525 -9.89154 -39.7326 13.5163 -1.1332 -5.0146 85.8066 -7.00202 33.6458 -0.0995 -28.05 -0.2431 -28.1036 -28.3753 -9.0214 0.0679 -23.3996 -0.1402 -51.9001 14.8397 10.2433 0.7932 -9.069 2.5189 6.62086e-030 2.38542e-014 -1.59028e-014 -0.8272 -3.3923 0.5977 3.18055e-015 1.74931e-014 -9.54166e-015 -0.5649 -2.3158 0.4082 3.18055e-015 2.70347e-014 -1.43125e-014 0.9159 -9.2044 0.2193 6.62086e-030 2.38542e-014 -1.59028e-014 0.0117 -4.1944 -0.0248 -0.0128932 0.00233583 8.33601e-005 0.0071 -2.3249 -0.0142 0 1.59028e-015 -0 0.6113 -8.7231 -2.0637 6.62086e-030 2.38542e-014 -1.59028e-014 -0.1927 -3.8059 -0.2383 -0.016092 0.0029911 0.000855252 -0.1091 -2.1688 -0.1362 -1.76556e-031 -6.36111e-015 -1.59028e-015 -0.6151 -8.0947 -3.5641 6.62086e-030 2.38542e-014 -1.59028e-014 -0.4882 -2.341 -0.6462 -0.0126356 0.00312778 0.00283393 -0.3575 -1.7167 -0.4742 -9.54166e-015 3.18055e-015 -4.77083e-015 -1.42 -1.8761 1.4223 6.62086e-030 2.38542e-014 -1.59028e-014 -1.1471 -3.4929 2.6334 3.18055e-015 1.74931e-014 -9.54166e-015 -0.823 -2.3 1.6571 3.18055e-015 2.70347e-014 -1.43125e-014 -2.2603 21.606 7.4023 23.0462 0.34539 14.6107 -13.5187 -1.1334 -5.0155 -53.809 -6.38775 -21.3318 0.0994 -28.0499 -0.2431 19.5819 0.910672 8.45455 -0.0679 -23.3996 -0.1402 52.5524 -0.202423 1.8195 -0.7932 -9.06911 2.5189 -2.36295e-006 -8.9543e-007 1.62547e-006 0.8272 -3.3923 0.5977 -1.86614e-006 2.64066e-006 3.11442e-006 0.565 -2.3158 0.4082 -4.96817e-007 3.19644e-006 -1.48896e-006 -0.916 -9.20441 0.2193 -2.36295e-006 -8.9543e-007 1.62547e-006 -0.0117 -4.1944 -0.0248 0.0129681 0.00231745 -8.76725e-005 -0.0071 -2.3249 -0.0142 5.56597e-015 0 -0 -0.6113 -8.7231 -2.0637 -2.36295e-006 -8.9543e-007 1.62547e-006 0.1927 -3.8059 -0.2383 0.0163098 0.0030356 -0.000864853 0.1091 -2.1688 -0.1362 -4.96547e-007 1.82775e-006 -1.48899e-006 0.6151 -8.0947 -3.564 -2.36295e-006 -8.9543e-007 1.62547e-006 0.4882 -2.341 -0.6462 0.0145938 0.00369112 -0.0032659 0.3574 -1.7166 -0.4742 -4.9655e-007 1.8277e-006 -1.48903e-006 1.4199 -1.8761 1.4221 -2.36295e-006 -8.9543e-007 1.62547e-006 1.1472 -3.4929 2.6336 -1.86614e-006 2.64066e-006 3.11442e-006 0.8229 -2.3 1.6571 -4.96817e-007 3.19644e-006 -1.48896e-006 -9.412 3.9771 -0.7758 -172.475 -28.5541 177.952 -0.7531 -40.938 0 -131.806 40.5633 108.029 0 -40.1986 -1.42109e-014 5.18368 -9.58275 22.3921 0 -4.4182 9.239 3.18055e-015 -3.18055e-015 -0 9.4119 3.9773 -0.7758 95.2456 -25.093 113.612 0.7532 -40.9383 7.10543e-015 -158.11 33.188 121.044 -7.10543e-015 -40.1986 0 18.9287 26.8823 9.5944 -7.10543e-015 -4.4182 9.239 -7.25129e-006 -6.95383e-007 -2.4056e-007 
0.136089 72.3327 12.0413 -1.08884e-014 28.8893 -180 0 8.7983 -4.7612 -0.622637 4.22519 -0.220076 1.11022e-016 8.0291 0.4195 -1.234 8.4525 -0.395573 0 9.9351 -2.2114 -1.23401 8.45252 -0.395574 0 22.3885 -0.4656 0.278722 -0.392243 0.442955 -0.0001 12.643 3.4389 0.104735 -0.447006 0.0394925 2.2603 21.606 7.4023 -24.9507 -10.6746 -40.8009 13.5163 -1.1332 -5.0146 85.8712 -6.63195 33.6916 -0.0995 -28.05 -0.2431 -27.3701 -27.821 -8.6326 0.0679 -23.3996 -0.1402 -52.5684 14.5067 10.5641 0.7932 -9.069 2.5189 -3.18055e-015 -4.77083e-015 -4.77083e-015 -0.8272 -3.3923 0.5977 6.36111e-015 6.36111e-015 -0 -0.5649 -2.3158 0.4082 -3.18055e-015 4.77083e-015 -3.18055e-015 0.9159 -9.2044 0.2193 -3.18055e-015 -4.77083e-015 -4.77083e-015 0.0117 -4.1944 -0.0248 -0.0127951 0.00233552 8.70835e-005 0.0071 -2.3249 -0.0142 1.6124e-006 -1.13902e-006 2.14651e-006 0.6113 -8.7231 -2.0637 -3.18055e-015 -4.77083e-015 -4.77083e-015 -0.1927 -3.8059 -0.2383 -0.016037 0.00299744 0.000861946 -0.1091 -2.1688 -0.1362 1.32417e-031 4.77083e-015 -1.59028e-015 -0.6151 -8.0947 -3.5641 -3.18055e-015 -4.77083e-015 -4.77083e-015 -0.4882 -2.341 -0.6462 -0.0125528 0.00311214 0.00281801 -0.3575 -1.7167 -0.4742 3.50395e-006 1.37284e-006 3.72068e-006 -1.42 -1.8761 1.4223 -3.18055e-015 -4.77083e-015 -4.77083e-015 -1.1471 -3.4929 2.6334 6.36111e-015 6.36111e-015 -0 -0.823 -2.3 1.6571 -3.18055e-015 4.77083e-015 -3.18055e-015 -2.2603 21.606 7.4023 21.4346 -0.622722 14.4253 -13.5187 -1.1334 -5.0155 -53.1071 -6.80785 -21.2249 0.0994 -28.0499 -0.2431 21.4736 0.930823 8.53456 -0.0679 -23.3996 -0.1402 51.5972 -0.311999 1.13367 -0.7932 -9.0691 2.5189 -1.00938e-006 -2.08377e-006 -2.97471e-006 0.8272 -3.3923 0.5977 9.11329e-007 -4.58637e-006 4.98533e-006 0.565 -2.3158 0.4082 -7.15625e-015 -6.36111e-015 -3.18055e-015 -0.916 -9.2044 0.2193 -1.00938e-006 -2.08377e-006 -2.97471e-006 -0.0117 -4.1944 -0.0248 0.0129468 0.00231213 -8.45449e-005 -0.0071 -2.3249 -0.0142 1.59028e-015 0 -3.18055e-015 -0.6113 -8.7231 -2.0637 -1.00938e-006 -2.08377e-006 -2.97471e-006 0.1927 -3.8059 -0.2383 0.0163651 0.00303469 -0.000872494 0.1091 -2.1688 -0.1362 3.18055e-015 3.18055e-015 -9.54166e-015 0.6151 -8.0947 -3.564 -1.00938e-006 -2.08377e-006 -2.97471e-006 0.4882 -2.341 -0.6462 0.0146041 0.00367124 -0.00325898 0.3574 -1.7166 -0.4742 1.51076e-014 -1.27222e-014 -6.36111e-015 1.4199 -1.8761 1.4221 -1.00938e-006 -2.08377e-006 -2.97471e-006 1.1472 -3.4929 2.6336 9.11329e-007 -4.58637e-006 4.98533e-006 0.8229 -2.3 1.6571 -7.15625e-015 -6.36111e-015 -3.18055e-015 -9.412 3.9771 -0.7758 -172.661 -28.7745 177.816 -0.7531 -40.938 0 -131.489 40.7534 107.852 5.32907e-015 -40.1986 -1.42109e-014 4.93342 -9.04833 22.2628 7.10543e-015 -4.4182 9.239 1.76556e-031 -3.18055e-015 3.18055e-015 9.4119 3.9773 -0.7758 95.6832 -25.1556 113.89 0.7532 -40.9383 -7.10543e-015 -158.15 33.1406 121.089 7.10543e-015 -40.1986 -7.10543e-015 18.5221 27.4181 10.1706 0 -4.4182 9.239 5.96685e-009 1.29362e-010 -1.06522e-007 
